<svg xmlns="http://www.w3.org/2000/svg" viewBox="0 0 24 24">
  <path d="M17.05 20.28c-.98 1.15-2.01 1.15-3.07 1.15-1.07 0-2.11-.38-3.18-.38-1.15 0-2.18.38-3.33.38-1.15 0-2.01-.38-2.99-1.53-2.04-3.06-1.79-8.86 1.66-11.38.87-.64 1.99-1.02 3.07-1.02 1.15 0 2.24.38 3.33.38.87 0 1.79-.38 3.07-.38 1.15 0 2.18.38 2.99 1.15.51.38.9.89 1.15 1.53-3.07 1.91-2.56 6.88.77 8.22-.39.89-.9 1.53-1.54 2.17l-.9-.77zm-6.4-18.16c.77-.89 2.18-1.53 3.2-1.53.13 1.02-.26 2.04-.77 2.81-.77.89-1.92 1.53-3.07 1.4-.13-.89.26-1.91.64-2.68z" fill="#000000"/>
</svg> 